<?xml version="1.0" encoding="utf-8" standalone="no"?>
<!DOCTYPE svg PUBLIC "-//W3C//DTD SVG 1.1//EN"
  "http://www.w3.org/Graphics/SVG/1.1/DTD/svg11.dtd">
<svg xmlns:xlink="http://www.w3.org/1999/xlink" width="708.56625pt" height="420.83625pt" viewBox="0 0 708.56625 420.83625" xmlns="http://www.w3.org/2000/svg" version="1.1">
 <metadata>
  <rdf:RDF xmlns:dc="http://purl.org/dc/elements/1.1/" xmlns:cc="http://creativecommons.org/ns#" xmlns:rdf="http://www.w3.org/1999/02/22-rdf-syntax-ns#">
   <cc:Work>
    <dc:type rdf:resource="http://purl.org/dc/dcmitype/StillImage"/>
    <dc:date>2026-05-08T19:37:35.787329</dc:date>
    <dc:format>image/svg+xml</dc:format>
    <dc:creator>
     <cc:Agent>
      <dc:title>Matplotlib v3.10.8, https://matplotlib.org/</dc:title>
     </cc:Agent>
    </dc:creator>
   </cc:Work>
  </rdf:RDF>
 </metadata>
 <defs>
  <style type="text/css">*{stroke-linejoin: round; stroke-linecap: butt}</style>
 </defs>
 <g id="figure_1">
  <g id="patch_1">
   <path d="M 0 420.83625 
L 708.56625 420.83625 
L 708.56625 0 
L 0 0 
z
" style="fill: #ffffff"/>
  </g>
  <g id="axes_1">
   <g id="patch_2">
    <path d="M 72.50625 377.22375 
L 701.36625 377.22375 
L 701.36625 24.8475 
L 72.50625 24.8475 
z
" style="fill: #ffffff"/>
   </g>
   <g id="matplotlib.axis_1">
    <g id="xtick_1">
     <g id="line2d_1">
      <path d="M 72.50625 377.22375 
L 72.50625 24.8475 
" clip-path="url(#p9461aea448)" style="fill: none; stroke: #cccccc; stroke-width: 0.8; stroke-linecap: round"/>
     </g>
     <g id="text_1">
      <text style="font-size: 12px; font-family: 'Arial', 'DejaVu Sans', 'Liberation Sans', 'Bitstream Vera Sans', sans-serif; text-anchor: middle; fill: #262626" x="72.50625" y="394.113125" transform="rotate(-0 72.50625 394.113125)">0</text>
     </g>
    </g>
    <g id="xtick_2">
     <g id="line2d_2">
      <path d="M 177.978003 377.22375 
L 177.978003 24.8475 
" clip-path="url(#p9461aea448)" style="fill: none; stroke: #cccccc; stroke-width: 0.8; stroke-linecap: round"/>
     </g>
     <g id="text_2">
      <text style="font-size: 12px; font-family: 'Arial', 'DejaVu Sans', 'Liberation Sans', 'Bitstream Vera Sans', sans-serif; text-anchor: middle; fill: #262626" x="177.978003" y="394.113125" transform="rotate(-0 177.978003 394.113125)">2</text>
     </g>
    </g>
    <g id="xtick_3">
     <g id="line2d_3">
      <path d="M 283.449757 377.22375 
L 283.449757 24.8475 
" clip-path="url(#p9461aea448)" style="fill: none; stroke: #cccccc; stroke-width: 0.8; stroke-linecap: round"/>
     </g>
     <g id="text_3">
      <text style="font-size: 12px; font-family: 'Arial', 'DejaVu Sans', 'Liberation Sans', 'Bitstream Vera Sans', sans-serif; text-anchor: middle; fill: #262626" x="283.449757" y="394.113125" transform="rotate(-0 283.449757 394.113125)">4</text>
     </g>
    </g>
    <g id="xtick_4">
     <g id="line2d_4">
      <path d="M 388.92151 377.22375 
L 388.92151 24.8475 
" clip-path="url(#p9461aea448)" style="fill: none; stroke: #cccccc; stroke-width: 0.8; stroke-linecap: round"/>
     </g>
     <g id="text_4">
      <text style="font-size: 12px; font-family: 'Arial', 'DejaVu Sans', 'Liberation Sans', 'Bitstream Vera Sans', sans-serif; text-anchor: middle; fill: #262626" x="388.92151" y="394.113125" transform="rotate(-0 388.92151 394.113125)">6</text>
     </g>
    </g>
    <g id="xtick_5">
     <g id="line2d_5">
      <path d="M 494.393263 377.22375 
L 494.393263 24.8475 
" clip-path="url(#p9461aea448)" style="fill: none; stroke: #cccccc; stroke-width: 0.8; stroke-linecap: round"/>
     </g>
     <g id="text_5">
      <text style="font-size: 12px; font-family: 'Arial', 'DejaVu Sans', 'Liberation Sans', 'Bitstream Vera Sans', sans-serif; text-anchor: middle; fill: #262626" x="494.393263" y="394.113125" transform="rotate(-0 494.393263 394.113125)">8</text>
     </g>
    </g>
    <g id="xtick_6">
     <g id="line2d_6">
      <path d="M 599.865017 377.22375 
L 599.865017 24.8475 
" clip-path="url(#p9461aea448)" style="fill: none; stroke: #cccccc; stroke-width: 0.8; stroke-linecap: round"/>
     </g>
     <g id="text_6">
      <text style="font-size: 12px; font-family: 'Arial', 'DejaVu Sans', 'Liberation Sans', 'Bitstream Vera Sans', sans-serif; text-anchor: middle; fill: #262626" x="599.865017" y="394.113125" transform="rotate(-0 599.865017 394.113125)">10</text>
     </g>
    </g>
    <g id="text_7">
     <text style="font-size: 14px; font-family: 'Arial', 'DejaVu Sans', 'Liberation Sans', 'Bitstream Vera Sans', sans-serif; text-anchor: middle; fill: #262626" x="386.93625" y="410.689687" transform="rotate(-0 386.93625 410.689687)">Absolute Error (°C)</text>
    </g>
   </g>
   <g id="matplotlib.axis_2">
    <g id="ytick_1">
     <g id="line2d_7">
      <path d="M 72.50625 377.22375 
L 701.36625 377.22375 
" clip-path="url(#p9461aea448)" style="fill: none; stroke: #cccccc; stroke-width: 0.8; stroke-linecap: round"/>
     </g>
     <g id="text_8">
      <text style="font-size: 12px; font-family: 'Arial', 'DejaVu Sans', 'Liberation Sans', 'Bitstream Vera Sans', sans-serif; text-anchor: end; fill: #262626" x="64.20625" y="381.518437" transform="rotate(-0 64.20625 381.518437)">0</text>
     </g>
    </g>
    <g id="ytick_2">
     <g id="line2d_8">
      <path d="M 72.50625 324.491425 
L 701.36625 324.491425 
" clip-path="url(#p9461aea448)" style="fill: none; stroke: #cccccc; stroke-width: 0.8; stroke-linecap: round"/>
     </g>
     <g id="text_9">
      <text style="font-size: 12px; font-family: 'Arial', 'DejaVu Sans', 'Liberation Sans', 'Bitstream Vera Sans', sans-serif; text-anchor: end; fill: #262626" x="64.20625" y="328.786112" transform="rotate(-0 64.20625 328.786112)">20000</text>
     </g>
    </g>
    <g id="ytick_3">
     <g id="line2d_9">
      <path d="M 72.50625 271.759099 
L 701.36625 271.759099 
" clip-path="url(#p9461aea448)" style="fill: none; stroke: #cccccc; stroke-width: 0.8; stroke-linecap: round"/>
     </g>
     <g id="text_10">
      <text style="font-size: 12px; font-family: 'Arial', 'DejaVu Sans', 'Liberation Sans', 'Bitstream Vera Sans', sans-serif; text-anchor: end; fill: #262626" x="64.20625" y="276.053787" transform="rotate(-0 64.20625 276.053787)">40000</text>
     </g>
    </g>
    <g id="ytick_4">
     <g id="line2d_10">
      <path d="M 72.50625 219.026774 
L 701.36625 219.026774 
" clip-path="url(#p9461aea448)" style="fill: none; stroke: #cccccc; stroke-width: 0.8; stroke-linecap: round"/>
     </g>
     <g id="text_11">
      <text style="font-size: 12px; font-family: 'Arial', 'DejaVu Sans', 'Liberation Sans', 'Bitstream Vera Sans', sans-serif; text-anchor: end; fill: #262626" x="64.20625" y="223.321461" transform="rotate(-0 64.20625 223.321461)">60000</text>
     </g>
    </g>
    <g id="ytick_5">
     <g id="line2d_11">
      <path d="M 72.50625 166.294448 
L 701.36625 166.294448 
" clip-path="url(#p9461aea448)" style="fill: none; stroke: #cccccc; stroke-width: 0.8; stroke-linecap: round"/>
     </g>
     <g id="text_12">
      <text style="font-size: 12px; font-family: 'Arial', 'DejaVu Sans', 'Liberation Sans', 'Bitstream Vera Sans', sans-serif; text-anchor: end; fill: #262626" x="64.20625" y="170.589136" transform="rotate(-0 64.20625 170.589136)">80000</text>
     </g>
    </g>
    <g id="ytick_6">
     <g id="line2d_12">
      <path d="M 72.50625 113.562123 
L 701.36625 113.562123 
" clip-path="url(#p9461aea448)" style="fill: none; stroke: #cccccc; stroke-width: 0.8; stroke-linecap: round"/>
     </g>
     <g id="text_13">
      <text style="font-size: 12px; font-family: 'Arial', 'DejaVu Sans', 'Liberation Sans', 'Bitstream Vera Sans', sans-serif; text-anchor: end; fill: #262626" x="64.20625" y="117.856811" transform="rotate(-0 64.20625 117.856811)">100000</text>
     </g>
    </g>
    <g id="ytick_7">
     <g id="line2d_13">
      <path d="M 72.50625 60.829798 
L 701.36625 60.829798 
" clip-path="url(#p9461aea448)" style="fill: none; stroke: #cccccc; stroke-width: 0.8; stroke-linecap: round"/>
     </g>
     <g id="text_14">
      <text style="font-size: 12px; font-family: 'Arial', 'DejaVu Sans', 'Liberation Sans', 'Bitstream Vera Sans', sans-serif; text-anchor: end; fill: #262626" x="64.20625" y="65.124485" transform="rotate(-0 64.20625 65.124485)">120000</text>
     </g>
    </g>
    <g id="text_15">
     <text style="font-size: 14px; font-family: 'Arial', 'DejaVu Sans', 'Liberation Sans', 'Bitstream Vera Sans', sans-serif; text-anchor: middle; fill: #262626" x="17.220937" y="201.035625" transform="rotate(-90 17.220937 201.035625)">Frequency</text>
    </g>
   </g>
   <g id="patch_3">
    <path d="M 72.50625 377.22375 
L 90.170443 377.22375 
L 90.170443 41.627321 
L 72.50625 41.627321 
z
" clip-path="url(#p9461aea448)" style="fill: #800080; fill-opacity: 0.75; stroke: #ffffff; stroke-width: 0.507273; stroke-linejoin: miter"/>
   </g>
   <g id="patch_4">
    <path d="M 90.170443 377.22375 
L 107.834636 377.22375 
L 107.834636 174.913547 
L 90.170443 174.913547 
z
" clip-path="url(#p9461aea448)" style="fill: #800080; fill-opacity: 0.75; stroke: #ffffff; stroke-width: 0.507273; stroke-linejoin: miter"/>
   </g>
   <g id="patch_5">
    <path d="M 107.834636 377.22375 
L 125.498829 377.22375 
L 125.498829 214.196493 
L 107.834636 214.196493 
z
" clip-path="url(#p9461aea448)" style="fill: #800080; fill-opacity: 0.75; stroke: #ffffff; stroke-width: 0.507273; stroke-linejoin: miter"/>
   </g>
   <g id="patch_6">
    <path d="M 125.498829 377.22375 
L 143.163023 377.22375 
L 143.163023 244.978988 
L 125.498829 244.978988 
z
" clip-path="url(#p9461aea448)" style="fill: #800080; fill-opacity: 0.75; stroke: #ffffff; stroke-width: 0.507273; stroke-linejoin: miter"/>
   </g>
   <g id="patch_7">
    <path d="M 143.163023 377.22375 
L 160.827216 377.22375 
L 160.827216 280.644496 
L 143.163023 280.644496 
z
" clip-path="url(#p9461aea448)" style="fill: #800080; fill-opacity: 0.75; stroke: #ffffff; stroke-width: 0.507273; stroke-linejoin: miter"/>
   </g>
   <g id="patch_8">
    <path d="M 160.827216 377.22375 
L 178.491409 377.22375 
L 178.491409 301.550226 
L 160.827216 301.550226 
z
" clip-path="url(#p9461aea448)" style="fill: #800080; fill-opacity: 0.75; stroke: #ffffff; stroke-width: 0.507273; stroke-linejoin: miter"/>
   </g>
   <g id="patch_9">
    <path d="M 178.491409 377.22375 
L 196.155602 377.22375 
L 196.155602 319.785065 
L 178.491409 319.785065 
z
" clip-path="url(#p9461aea448)" style="fill: #800080; fill-opacity: 0.75; stroke: #ffffff; stroke-width: 0.507273; stroke-linejoin: miter"/>
   </g>
   <g id="patch_10">
    <path d="M 196.155602 377.22375 
L 213.819795 377.22375 
L 213.819795 331.417816 
L 196.155602 331.417816 
z
" clip-path="url(#p9461aea448)" style="fill: #800080; fill-opacity: 0.75; stroke: #ffffff; stroke-width: 0.507273; stroke-linejoin: miter"/>
   </g>
   <g id="patch_11">
    <path d="M 213.819795 377.22375 
L 231.483988 377.22375 
L 231.483988 336.846608 
L 213.819795 336.846608 
z
" clip-path="url(#p9461aea448)" style="fill: #800080; fill-opacity: 0.75; stroke: #ffffff; stroke-width: 0.507273; stroke-linejoin: miter"/>
   </g>
   <g id="patch_12">
    <path d="M 231.483988 377.22375 
L 249.148181 377.22375 
L 249.148181 347.245423 
L 231.483988 347.245423 
z
" clip-path="url(#p9461aea448)" style="fill: #800080; fill-opacity: 0.75; stroke: #ffffff; stroke-width: 0.507273; stroke-linejoin: miter"/>
   </g>
   <g id="patch_13">
    <path d="M 249.148181 377.22375 
L 266.812375 377.22375 
L 266.812375 352.629393 
L 249.148181 352.629393 
z
" clip-path="url(#p9461aea448)" style="fill: #800080; fill-opacity: 0.75; stroke: #ffffff; stroke-width: 0.507273; stroke-linejoin: miter"/>
   </g>
   <g id="patch_14">
    <path d="M 266.812375 377.22375 
L 284.476568 377.22375 
L 284.476568 356.444577 
L 266.812375 356.444577 
z
" clip-path="url(#p9461aea448)" style="fill: #800080; fill-opacity: 0.75; stroke: #ffffff; stroke-width: 0.507273; stroke-linejoin: miter"/>
   </g>
   <g id="patch_15">
    <path d="M 284.476568 377.22375 
L 302.140761 377.22375 
L 302.140761 360.83718 
L 284.476568 360.83718 
z
" clip-path="url(#p9461aea448)" style="fill: #800080; fill-opacity: 0.75; stroke: #ffffff; stroke-width: 0.507273; stroke-linejoin: miter"/>
   </g>
   <g id="patch_16">
    <path d="M 302.140761 377.22375 
L 319.804954 377.22375 
L 319.804954 364.117131 
L 302.140761 364.117131 
z
" clip-path="url(#p9461aea448)" style="fill: #800080; fill-opacity: 0.75; stroke: #ffffff; stroke-width: 0.507273; stroke-linejoin: miter"/>
   </g>
   <g id="patch_17">
    <path d="M 319.804954 377.22375 
L 337.469147 377.22375 
L 337.469147 366.674648 
L 319.804954 366.674648 
z
" clip-path="url(#p9461aea448)" style="fill: #800080; fill-opacity: 0.75; stroke: #ffffff; stroke-width: 0.507273; stroke-linejoin: miter"/>
   </g>
   <g id="patch_18">
    <path d="M 337.469147 377.22375 
L 355.13334 377.22375 
L 355.13334 368.525553 
L 337.469147 368.525553 
z
" clip-path="url(#p9461aea448)" style="fill: #800080; fill-opacity: 0.75; stroke: #ffffff; stroke-width: 0.507273; stroke-linejoin: miter"/>
   </g>
   <g id="patch_19">
    <path d="M 355.13334 377.22375 
L 372.797533 377.22375 
L 372.797533 370.255173 
L 355.13334 370.255173 
z
" clip-path="url(#p9461aea448)" style="fill: #800080; fill-opacity: 0.75; stroke: #ffffff; stroke-width: 0.507273; stroke-linejoin: miter"/>
   </g>
   <g id="patch_20">
    <path d="M 372.797533 377.22375 
L 390.461727 377.22375 
L 390.461727 371.246541 
L 372.797533 371.246541 
z
" clip-path="url(#p9461aea448)" style="fill: #800080; fill-opacity: 0.75; stroke: #ffffff; stroke-width: 0.507273; stroke-linejoin: miter"/>
   </g>
   <g id="patch_21">
    <path d="M 390.461727 377.22375 
L 408.12592 377.22375 
L 408.12592 372.15881 
L 390.461727 372.15881 
z
" clip-path="url(#p9461aea448)" style="fill: #800080; fill-opacity: 0.75; stroke: #ffffff; stroke-width: 0.507273; stroke-linejoin: miter"/>
   </g>
   <g id="patch_22">
    <path d="M 408.12592 377.22375 
L 425.790113 377.22375 
L 425.790113 373.181817 
L 408.12592 373.181817 
z
" clip-path="url(#p9461aea448)" style="fill: #800080; fill-opacity: 0.75; stroke: #ffffff; stroke-width: 0.507273; stroke-linejoin: miter"/>
   </g>
   <g id="patch_23">
    <path d="M 425.790113 377.22375 
L 443.454306 377.22375 
L 443.454306 373.735507 
L 425.790113 373.735507 
z
" clip-path="url(#p9461aea448)" style="fill: #800080; fill-opacity: 0.75; stroke: #ffffff; stroke-width: 0.507273; stroke-linejoin: miter"/>
   </g>
   <g id="patch_24">
    <path d="M 443.454306 377.22375 
L 461.118499 377.22375 
L 461.118499 374.471123 
L 443.454306 374.471123 
z
" clip-path="url(#p9461aea448)" style="fill: #800080; fill-opacity: 0.75; stroke: #ffffff; stroke-width: 0.507273; stroke-linejoin: miter"/>
   </g>
   <g id="patch_25">
    <path d="M 461.118499 377.22375 
L 478.782692 377.22375 
L 478.782692 374.798063 
L 461.118499 374.798063 
z
" clip-path="url(#p9461aea448)" style="fill: #800080; fill-opacity: 0.75; stroke: #ffffff; stroke-width: 0.507273; stroke-linejoin: miter"/>
   </g>
   <g id="patch_26">
    <path d="M 478.782692 377.22375 
L 496.446885 377.22375 
L 496.446885 375.172463 
L 478.782692 375.172463 
z
" clip-path="url(#p9461aea448)" style="fill: #800080; fill-opacity: 0.75; stroke: #ffffff; stroke-width: 0.507273; stroke-linejoin: miter"/>
   </g>
   <g id="patch_27">
    <path d="M 496.446885 377.22375 
L 514.111079 377.22375 
L 514.111079 375.623324 
L 496.446885 375.623324 
z
" clip-path="url(#p9461aea448)" style="fill: #800080; fill-opacity: 0.75; stroke: #ffffff; stroke-width: 0.507273; stroke-linejoin: miter"/>
   </g>
   <g id="patch_28">
    <path d="M 514.111079 377.22375 
L 531.775272 377.22375 
L 531.775272 375.881712 
L 514.111079 375.881712 
z
" clip-path="url(#p9461aea448)" style="fill: #800080; fill-opacity: 0.75; stroke: #ffffff; stroke-width: 0.507273; stroke-linejoin: miter"/>
   </g>
   <g id="patch_29">
    <path d="M 531.775272 377.22375 
L 549.439465 377.22375 
L 549.439465 376.169103 
L 531.775272 376.169103 
z
" clip-path="url(#p9461aea448)" style="fill: #800080; fill-opacity: 0.75; stroke: #ffffff; stroke-width: 0.507273; stroke-linejoin: miter"/>
   </g>
   <g id="patch_30">
    <path d="M 549.439465 377.22375 
L 567.103658 377.22375 
L 567.103658 376.322027 
L 549.439465 376.322027 
z
" clip-path="url(#p9461aea448)" style="fill: #800080; fill-opacity: 0.75; stroke: #ffffff; stroke-width: 0.507273; stroke-linejoin: miter"/>
   </g>
   <g id="patch_31">
    <path d="M 567.103658 377.22375 
L 584.767851 377.22375 
L 584.767851 376.459131 
L 567.103658 376.459131 
z
" clip-path="url(#p9461aea448)" style="fill: #800080; fill-opacity: 0.75; stroke: #ffffff; stroke-width: 0.507273; stroke-linejoin: miter"/>
   </g>
   <g id="patch_32">
    <path d="M 584.767851 377.22375 
L 602.432044 377.22375 
L 602.432044 376.622601 
L 584.767851 376.622601 
z
" clip-path="url(#p9461aea448)" style="fill: #800080; fill-opacity: 0.75; stroke: #ffffff; stroke-width: 0.507273; stroke-linejoin: miter"/>
   </g>
   <g id="patch_33">
    <path d="M 602.432044 377.22375 
L 620.096237 377.22375 
L 620.096237 376.601509 
L 602.432044 376.601509 
z
" clip-path="url(#p9461aea448)" style="fill: #800080; fill-opacity: 0.75; stroke: #ffffff; stroke-width: 0.507273; stroke-linejoin: miter"/>
   </g>
   <g id="patch_34">
    <path d="M 620.096237 377.22375 
L 637.760431 377.22375 
L 637.760431 376.627875 
L 620.096237 376.627875 
z
" clip-path="url(#p9461aea448)" style="fill: #800080; fill-opacity: 0.75; stroke: #ffffff; stroke-width: 0.507273; stroke-linejoin: miter"/>
   </g>
   <g id="patch_35">
    <path d="M 637.760431 377.22375 
L 655.424624 377.22375 
L 655.424624 376.751796 
L 637.760431 376.751796 
z
" clip-path="url(#p9461aea448)" style="fill: #800080; fill-opacity: 0.75; stroke: #ffffff; stroke-width: 0.507273; stroke-linejoin: miter"/>
   </g>
   <g id="patch_36">
    <path d="M 655.424624 377.22375 
L 673.088817 377.22375 
L 673.088817 376.820348 
L 655.424624 376.820348 
z
" clip-path="url(#p9461aea448)" style="fill: #800080; fill-opacity: 0.75; stroke: #ffffff; stroke-width: 0.507273; stroke-linejoin: miter"/>
   </g>
   <g id="patch_37">
    <path d="M 673.088817 377.22375 
L 690.75301 377.22375 
L 690.75301 376.89681 
L 673.088817 376.89681 
z
" clip-path="url(#p9461aea448)" style="fill: #800080; fill-opacity: 0.75; stroke: #ffffff; stroke-width: 0.507273; stroke-linejoin: miter"/>
   </g>
   <g id="patch_38">
    <path d="M 690.75301 377.22375 
L 708.417203 377.22375 
L 708.417203 376.928449 
L 690.75301 376.928449 
z
" clip-path="url(#p9461aea448)" style="fill: #800080; fill-opacity: 0.75; stroke: #ffffff; stroke-width: 0.507273; stroke-linejoin: miter"/>
   </g>
   <g id="patch_39">
    <path d="M 708.417203 377.22375 
L 726.081396 377.22375 
L 726.081396 376.973271 
L 708.417203 376.973271 
z
" clip-path="url(#p9461aea448)" style="fill: #800080; fill-opacity: 0.75; stroke: #ffffff; stroke-width: 0.507273; stroke-linejoin: miter"/>
   </g>
   <g id="patch_40">
    <path d="M 726.081396 377.22375 
L 743.745589 377.22375 
L 743.745589 376.991728 
L 726.081396 376.991728 
z
" clip-path="url(#p9461aea448)" style="fill: #800080; fill-opacity: 0.75; stroke: #ffffff; stroke-width: 0.507273; stroke-linejoin: miter"/>
   </g>
   <g id="patch_41">
    <path d="M 743.745589 377.22375 
L 761.409783 377.22375 
L 761.409783 377.033914 
L 743.745589 377.033914 
z
" clip-path="url(#p9461aea448)" style="fill: #800080; fill-opacity: 0.75; stroke: #ffffff; stroke-width: 0.507273; stroke-linejoin: miter"/>
   </g>
   <g id="patch_42">
    <path d="M 761.409783 377.22375 
L 779.073976 377.22375 
L 779.073976 377.041823 
L 761.409783 377.041823 
z
" clip-path="url(#p9461aea448)" style="fill: #800080; fill-opacity: 0.75; stroke: #ffffff; stroke-width: 0.507273; stroke-linejoin: miter"/>
   </g>
   <g id="patch_43">
    <path d="M 779.073976 377.22375 
L 796.738169 377.22375 
L 796.738169 377.039187 
L 779.073976 377.039187 
z
" clip-path="url(#p9461aea448)" style="fill: #800080; fill-opacity: 0.75; stroke: #ffffff; stroke-width: 0.507273; stroke-linejoin: miter"/>
   </g>
   <g id="patch_44">
    <path d="M 796.738169 377.22375 
L 814.402362 377.22375 
L 814.402362 377.081373 
L 796.738169 377.081373 
z
" clip-path="url(#p9461aea448)" style="fill: #800080; fill-opacity: 0.75; stroke: #ffffff; stroke-width: 0.507273; stroke-linejoin: miter"/>
   </g>
   <g id="patch_45">
    <path d="M 814.402362 377.22375 
L 832.066555 377.22375 
L 832.066555 377.078736 
L 814.402362 377.078736 
z
" clip-path="url(#p9461aea448)" style="fill: #800080; fill-opacity: 0.75; stroke: #ffffff; stroke-width: 0.507273; stroke-linejoin: miter"/>
   </g>
   <g id="patch_46">
    <path d="M 832.066555 377.22375 
L 849.730748 377.22375 
L 849.730748 377.070826 
L 832.066555 377.070826 
z
" clip-path="url(#p9461aea448)" style="fill: #800080; fill-opacity: 0.75; stroke: #ffffff; stroke-width: 0.507273; stroke-linejoin: miter"/>
   </g>
   <g id="patch_47">
    <path d="M 849.730748 377.22375 
L 867.394941 377.22375 
L 867.394941 377.099829 
L 849.730748 377.099829 
z
" clip-path="url(#p9461aea448)" style="fill: #800080; fill-opacity: 0.75; stroke: #ffffff; stroke-width: 0.507273; stroke-linejoin: miter"/>
   </g>
   <g id="patch_48">
    <path d="M 867.394941 377.22375 
L 885.059135 377.22375 
L 885.059135 377.102466 
L 867.394941 377.102466 
z
" clip-path="url(#p9461aea448)" style="fill: #800080; fill-opacity: 0.75; stroke: #ffffff; stroke-width: 0.507273; stroke-linejoin: miter"/>
   </g>
   <g id="patch_49">
    <path d="M 885.059135 377.22375 
L 902.723328 377.22375 
L 902.723328 377.097192 
L 885.059135 377.097192 
z
" clip-path="url(#p9461aea448)" style="fill: #800080; fill-opacity: 0.75; stroke: #ffffff; stroke-width: 0.507273; stroke-linejoin: miter"/>
   </g>
   <g id="patch_50">
    <path d="M 902.723328 377.22375 
L 920.387521 377.22375 
L 920.387521 377.144652 
L 902.723328 377.144652 
z
" clip-path="url(#p9461aea448)" style="fill: #800080; fill-opacity: 0.75; stroke: #ffffff; stroke-width: 0.507273; stroke-linejoin: miter"/>
   </g>
   <g id="patch_51">
    <path d="M 920.387521 377.22375 
L 938.051714 377.22375 
L 938.051714 377.118285 
L 920.387521 377.118285 
z
" clip-path="url(#p9461aea448)" style="fill: #800080; fill-opacity: 0.75; stroke: #ffffff; stroke-width: 0.507273; stroke-linejoin: miter"/>
   </g>
   <g id="patch_52">
    <path d="M 938.051714 377.22375 
L 955.715907 377.22375 
L 955.715907 377.115649 
L 938.051714 377.115649 
z
" clip-path="url(#p9461aea448)" style="fill: #800080; fill-opacity: 0.75; stroke: #ffffff; stroke-width: 0.507273; stroke-linejoin: miter"/>
   </g>
   <g id="patch_53">
    <path d="M 955.715907 377.22375 
L 973.3801 377.22375 
L 973.3801 377.139378 
L 955.715907 377.139378 
z
" clip-path="url(#p9461aea448)" style="fill: #800080; fill-opacity: 0.75; stroke: #ffffff; stroke-width: 0.507273; stroke-linejoin: miter"/>
   </g>
   <g id="patch_54">
    <path d="M 973.3801 377.22375 
L 991.044293 377.22375 
L 991.044293 377.157835 
L 973.3801 377.157835 
z
" clip-path="url(#p9461aea448)" style="fill: #800080; fill-opacity: 0.75; stroke: #ffffff; stroke-width: 0.507273; stroke-linejoin: miter"/>
   </g>
   <g id="patch_55">
    <path d="M 991.044293 377.22375 
L 1008.708487 377.22375 
L 1008.708487 377.144652 
L 991.044293 377.144652 
z
" clip-path="url(#p9461aea448)" style="fill: #800080; fill-opacity: 0.75; stroke: #ffffff; stroke-width: 0.507273; stroke-linejoin: miter"/>
   </g>
   <g id="patch_56">
    <path d="M 1008.708487 377.22375 
L 1026.37268 377.22375 
L 1026.37268 377.152561 
L 1008.708487 377.152561 
z
" clip-path="url(#p9461aea448)" style="fill: #800080; fill-opacity: 0.75; stroke: #ffffff; stroke-width: 0.507273; stroke-linejoin: miter"/>
   </g>
   <g id="patch_57">
    <path d="M 1026.37268 377.22375 
L 1044.036873 377.22375 
L 1044.036873 377.173654 
L 1026.37268 377.173654 
z
" clip-path="url(#p9461aea448)" style="fill: #800080; fill-opacity: 0.75; stroke: #ffffff; stroke-width: 0.507273; stroke-linejoin: miter"/>
   </g>
   <g id="patch_58">
    <path d="M 1044.036873 377.22375 
L 1061.701066 377.22375 
L 1061.701066 377.142015 
L 1044.036873 377.142015 
z
" clip-path="url(#p9461aea448)" style="fill: #800080; fill-opacity: 0.75; stroke: #ffffff; stroke-width: 0.507273; stroke-linejoin: miter"/>
   </g>
   <g id="patch_59">
    <path d="M 1061.701066 377.22375 
L 1079.365259 377.22375 
L 1079.365259 377.142015 
L 1061.701066 377.142015 
z
" clip-path="url(#p9461aea448)" style="fill: #800080; fill-opacity: 0.75; stroke: #ffffff; stroke-width: 0.507273; stroke-linejoin: miter"/>
   </g>
   <g id="patch_60">
    <path d="M 1079.365259 377.22375 
L 1097.029452 377.22375 
L 1097.029452 377.184201 
L 1079.365259 377.184201 
z
" clip-path="url(#p9461aea448)" style="fill: #800080; fill-opacity: 0.75; stroke: #ffffff; stroke-width: 0.507273; stroke-linejoin: miter"/>
   </g>
   <g id="patch_61">
    <path d="M 1097.029452 377.22375 
L 1114.693645 377.22375 
L 1114.693645 377.155198 
L 1097.029452 377.155198 
z
" clip-path="url(#p9461aea448)" style="fill: #800080; fill-opacity: 0.75; stroke: #ffffff; stroke-width: 0.507273; stroke-linejoin: miter"/>
   </g>
   <g id="patch_62">
    <path d="M 1114.693645 377.22375 
L 1132.357839 377.22375 
L 1132.357839 377.173654 
L 1114.693645 377.173654 
z
" clip-path="url(#p9461aea448)" style="fill: #800080; fill-opacity: 0.75; stroke: #ffffff; stroke-width: 0.507273; stroke-linejoin: miter"/>
   </g>
   <g id="patch_63">
    <path d="M 1132.357839 377.22375 
L 1150.022032 377.22375 
L 1150.022032 377.176291 
L 1132.357839 377.176291 
z
" clip-path="url(#p9461aea448)" style="fill: #800080; fill-opacity: 0.75; stroke: #ffffff; stroke-width: 0.507273; stroke-linejoin: miter"/>
   </g>
   <g id="patch_64">
    <path d="M 1150.022032 377.22375 
L 1167.686225 377.22375 
L 1167.686225 377.189474 
L 1150.022032 377.189474 
z
" clip-path="url(#p9461aea448)" style="fill: #800080; fill-opacity: 0.75; stroke: #ffffff; stroke-width: 0.507273; stroke-linejoin: miter"/>
   </g>
   <g id="patch_65">
    <path d="M 1167.686225 377.22375 
L 1185.350418 377.22375 
L 1185.350418 377.186837 
L 1167.686225 377.186837 
z
" clip-path="url(#p9461aea448)" style="fill: #800080; fill-opacity: 0.75; stroke: #ffffff; stroke-width: 0.507273; stroke-linejoin: miter"/>
   </g>
   <g id="patch_66">
    <path d="M 1185.350418 377.22375 
L 1203.014611 377.22375 
L 1203.014611 377.189474 
L 1185.350418 377.189474 
z
" clip-path="url(#p9461aea448)" style="fill: #800080; fill-opacity: 0.75; stroke: #ffffff; stroke-width: 0.507273; stroke-linejoin: miter"/>
   </g>
   <g id="patch_67">
    <path d="M 1203.014611 377.22375 
L 1220.678804 377.22375 
L 1220.678804 377.173654 
L 1203.014611 377.173654 
z
" clip-path="url(#p9461aea448)" style="fill: #800080; fill-opacity: 0.75; stroke: #ffffff; stroke-width: 0.507273; stroke-linejoin: miter"/>
   </g>
   <g id="patch_68">
    <path d="M 1220.678804 377.22375 
L 1238.342997 377.22375 
L 1238.342997 377.168381 
L 1220.678804 377.168381 
z
" clip-path="url(#p9461aea448)" style="fill: #800080; fill-opacity: 0.75; stroke: #ffffff; stroke-width: 0.507273; stroke-linejoin: miter"/>
   </g>
   <g id="patch_69">
    <path d="M 1238.342997 377.22375 
L 1256.007191 377.22375 
L 1256.007191 377.184201 
L 1238.342997 377.184201 
z
" clip-path="url(#p9461aea448)" style="fill: #800080; fill-opacity: 0.75; stroke: #ffffff; stroke-width: 0.507273; stroke-linejoin: miter"/>
   </g>
   <g id="patch_70">
    <path d="M 1256.007191 377.22375 
L 1273.671384 377.22375 
L 1273.671384 377.20793 
L 1256.007191 377.20793 
z
" clip-path="url(#p9461aea448)" style="fill: #800080; fill-opacity: 0.75; stroke: #ffffff; stroke-width: 0.507273; stroke-linejoin: miter"/>
   </g>
   <g id="patch_71">
    <path d="M 1273.671384 377.22375 
L 1291.335577 377.22375 
L 1291.335577 377.202657 
L 1273.671384 377.202657 
z
" clip-path="url(#p9461aea448)" style="fill: #800080; fill-opacity: 0.75; stroke: #ffffff; stroke-width: 0.507273; stroke-linejoin: miter"/>
   </g>
   <g id="patch_72">
    <path d="M 1291.335577 377.22375 
L 1308.99977 377.22375 
L 1308.99977 377.192111 
L 1291.335577 377.192111 
z
" clip-path="url(#p9461aea448)" style="fill: #800080; fill-opacity: 0.75; stroke: #ffffff; stroke-width: 0.507273; stroke-linejoin: miter"/>
   </g>
   <g id="patch_73">
    <path d="M 1308.99977 377.22375 
L 1326.663963 377.22375 
L 1326.663963 377.205294 
L 1308.99977 377.205294 
z
" clip-path="url(#p9461aea448)" style="fill: #800080; fill-opacity: 0.75; stroke: #ffffff; stroke-width: 0.507273; stroke-linejoin: miter"/>
   </g>
   <g id="patch_74">
    <path d="M 1326.663963 377.22375 
L 1344.328156 377.22375 
L 1344.328156 377.202657 
L 1326.663963 377.202657 
z
" clip-path="url(#p9461aea448)" style="fill: #800080; fill-opacity: 0.75; stroke: #ffffff; stroke-width: 0.507273; stroke-linejoin: miter"/>
   </g>
   <g id="patch_75">
    <path d="M 1344.328156 377.22375 
L 1361.992349 377.22375 
L 1361.992349 377.20002 
L 1344.328156 377.20002 
z
" clip-path="url(#p9461aea448)" style="fill: #800080; fill-opacity: 0.75; stroke: #ffffff; stroke-width: 0.507273; stroke-linejoin: miter"/>
   </g>
   <g id="patch_76">
    <path d="M 1361.992349 377.22375 
L 1379.656543 377.22375 
L 1379.656543 377.205294 
L 1361.992349 377.205294 
z
" clip-path="url(#p9461aea448)" style="fill: #800080; fill-opacity: 0.75; stroke: #ffffff; stroke-width: 0.507273; stroke-linejoin: miter"/>
   </g>
   <g id="patch_77">
    <path d="M 1379.656543 377.22375 
L 1397.320736 377.22375 
L 1397.320736 377.213204 
L 1379.656543 377.213204 
z
" clip-path="url(#p9461aea448)" style="fill: #800080; fill-opacity: 0.75; stroke: #ffffff; stroke-width: 0.507273; stroke-linejoin: miter"/>
   </g>
   <g id="patch_78">
    <path d="M 1397.320736 377.22375 
L 1414.984929 377.22375 
L 1414.984929 377.210567 
L 1397.320736 377.210567 
z
" clip-path="url(#p9461aea448)" style="fill: #800080; fill-opacity: 0.75; stroke: #ffffff; stroke-width: 0.507273; stroke-linejoin: miter"/>
   </g>
   <g id="patch_79">
    <path d="M 1414.984929 377.22375 
L 1432.649122 377.22375 
L 1432.649122 377.205294 
L 1414.984929 377.205294 
z
" clip-path="url(#p9461aea448)" style="fill: #800080; fill-opacity: 0.75; stroke: #ffffff; stroke-width: 0.507273; stroke-linejoin: miter"/>
   </g>
   <g id="patch_80">
    <path d="M 1432.649122 377.22375 
L 1450.313315 377.22375 
L 1450.313315 377.20793 
L 1432.649122 377.20793 
z
" clip-path="url(#p9461aea448)" style="fill: #800080; fill-opacity: 0.75; stroke: #ffffff; stroke-width: 0.507273; stroke-linejoin: miter"/>
   </g>
   <g id="patch_81">
    <path d="M 1450.313315 377.22375 
L 1467.977508 377.22375 
L 1467.977508 377.21584 
L 1450.313315 377.21584 
z
" clip-path="url(#p9461aea448)" style="fill: #800080; fill-opacity: 0.75; stroke: #ffffff; stroke-width: 0.507273; stroke-linejoin: miter"/>
   </g>
   <g id="patch_82">
    <path d="M 1467.977508 377.22375 
L 1485.641701 377.22375 
L 1485.641701 377.197384 
L 1467.977508 377.197384 
z
" clip-path="url(#p9461aea448)" style="fill: #800080; fill-opacity: 0.75; stroke: #ffffff; stroke-width: 0.507273; stroke-linejoin: miter"/>
   </g>
   <g id="patch_83">
    <path d="M 1485.641701 377.22375 
L 1503.305895 377.22375 
L 1503.305895 377.21584 
L 1485.641701 377.21584 
z
" clip-path="url(#p9461aea448)" style="fill: #800080; fill-opacity: 0.75; stroke: #ffffff; stroke-width: 0.507273; stroke-linejoin: miter"/>
   </g>
   <g id="patch_84">
    <path d="M 1503.305895 377.22375 
L 1520.970088 377.22375 
L 1520.970088 377.21584 
L 1503.305895 377.21584 
z
" clip-path="url(#p9461aea448)" style="fill: #800080; fill-opacity: 0.75; stroke: #ffffff; stroke-width: 0.507273; stroke-linejoin: miter"/>
   </g>
   <g id="patch_85">
    <path d="M 1520.970088 377.22375 
L 1538.634281 377.22375 
L 1538.634281 377.22375 
L 1520.970088 377.22375 
z
" clip-path="url(#p9461aea448)" style="fill: #800080; fill-opacity: 0.75; stroke: #ffffff; stroke-width: 0.507273; stroke-linejoin: miter"/>
   </g>
   <g id="patch_86">
    <path d="M 1538.634281 377.22375 
L 1556.298474 377.22375 
L 1556.298474 377.22375 
L 1538.634281 377.22375 
z
" clip-path="url(#p9461aea448)" style="fill: #800080; fill-opacity: 0.75; stroke: #ffffff; stroke-width: 0.507273; stroke-linejoin: miter"/>
   </g>
   <g id="patch_87">
    <path d="M 1556.298474 377.22375 
L 1573.962667 377.22375 
L 1573.962667 377.21584 
L 1556.298474 377.21584 
z
" clip-path="url(#p9461aea448)" style="fill: #800080; fill-opacity: 0.75; stroke: #ffffff; stroke-width: 0.507273; stroke-linejoin: miter"/>
   </g>
   <g id="patch_88">
    <path d="M 1573.962667 377.22375 
L 1591.62686 377.22375 
L 1591.62686 377.218477 
L 1573.962667 377.218477 
z
" clip-path="url(#p9461aea448)" style="fill: #800080; fill-opacity: 0.75; stroke: #ffffff; stroke-width: 0.507273; stroke-linejoin: miter"/>
   </g>
   <g id="patch_89">
    <path d="M 1591.62686 377.22375 
L 1609.291053 377.22375 
L 1609.291053 377.218477 
L 1591.62686 377.218477 
z
" clip-path="url(#p9461aea448)" style="fill: #800080; fill-opacity: 0.75; stroke: #ffffff; stroke-width: 0.507273; stroke-linejoin: miter"/>
   </g>
   <g id="patch_90">
    <path d="M 1609.291053 377.22375 
L 1626.955247 377.22375 
L 1626.955247 377.218477 
L 1609.291053 377.218477 
z
" clip-path="url(#p9461aea448)" style="fill: #800080; fill-opacity: 0.75; stroke: #ffffff; stroke-width: 0.507273; stroke-linejoin: miter"/>
   </g>
   <g id="patch_91">
    <path d="M 1626.955247 377.22375 
L 1644.61944 377.22375 
L 1644.61944 377.221113 
L 1626.955247 377.221113 
z
" clip-path="url(#p9461aea448)" style="fill: #800080; fill-opacity: 0.75; stroke: #ffffff; stroke-width: 0.507273; stroke-linejoin: miter"/>
   </g>
   <g id="patch_92">
    <path d="M 1644.61944 377.22375 
L 1662.283633 377.22375 
L 1662.283633 377.218477 
L 1644.61944 377.218477 
z
" clip-path="url(#p9461aea448)" style="fill: #800080; fill-opacity: 0.75; stroke: #ffffff; stroke-width: 0.507273; stroke-linejoin: miter"/>
   </g>
   <g id="patch_93">
    <path d="M 1662.283633 377.22375 
L 1679.947826 377.22375 
L 1679.947826 377.221113 
L 1662.283633 377.221113 
z
" clip-path="url(#p9461aea448)" style="fill: #800080; fill-opacity: 0.75; stroke: #ffffff; stroke-width: 0.507273; stroke-linejoin: miter"/>
   </g>
   <g id="patch_94">
    <path d="M 1679.947826 377.22375 
L 1697.612019 377.22375 
L 1697.612019 377.22375 
L 1679.947826 377.22375 
z
" clip-path="url(#p9461aea448)" style="fill: #800080; fill-opacity: 0.75; stroke: #ffffff; stroke-width: 0.507273; stroke-linejoin: miter"/>
   </g>
   <g id="patch_95">
    <path d="M 1697.612019 377.22375 
L 1715.276212 377.22375 
L 1715.276212 377.22375 
L 1697.612019 377.22375 
z
" clip-path="url(#p9461aea448)" style="fill: #800080; fill-opacity: 0.75; stroke: #ffffff; stroke-width: 0.507273; stroke-linejoin: miter"/>
   </g>
   <g id="patch_96">
    <path d="M 1715.276212 377.22375 
L 1732.940405 377.22375 
L 1732.940405 377.22375 
L 1715.276212 377.22375 
z
" clip-path="url(#p9461aea448)" style="fill: #800080; fill-opacity: 0.75; stroke: #ffffff; stroke-width: 0.507273; stroke-linejoin: miter"/>
   </g>
   <g id="patch_97">
    <path d="M 1732.940405 377.22375 
L 1750.604599 377.22375 
L 1750.604599 377.22375 
L 1732.940405 377.22375 
z
" clip-path="url(#p9461aea448)" style="fill: #800080; fill-opacity: 0.75; stroke: #ffffff; stroke-width: 0.507273; stroke-linejoin: miter"/>
   </g>
   <g id="patch_98">
    <path d="M 1750.604599 377.22375 
L 1768.268792 377.22375 
L 1768.268792 377.22375 
L 1750.604599 377.22375 
z
" clip-path="url(#p9461aea448)" style="fill: #800080; fill-opacity: 0.75; stroke: #ffffff; stroke-width: 0.507273; stroke-linejoin: miter"/>
   </g>
   <g id="patch_99">
    <path d="M 1768.268792 377.22375 
L 1785.932985 377.22375 
L 1785.932985 377.22375 
L 1768.268792 377.22375 
z
" clip-path="url(#p9461aea448)" style="fill: #800080; fill-opacity: 0.75; stroke: #ffffff; stroke-width: 0.507273; stroke-linejoin: miter"/>
   </g>
   <g id="patch_100">
    <path d="M 1785.932985 377.22375 
L 1803.597178 377.22375 
L 1803.597178 377.22375 
L 1785.932985 377.22375 
z
" clip-path="url(#p9461aea448)" style="fill: #800080; fill-opacity: 0.75; stroke: #ffffff; stroke-width: 0.507273; stroke-linejoin: miter"/>
   </g>
   <g id="patch_101">
    <path d="M 1803.597178 377.22375 
L 1821.261371 377.22375 
L 1821.261371 377.22375 
L 1803.597178 377.22375 
z
" clip-path="url(#p9461aea448)" style="fill: #800080; fill-opacity: 0.75; stroke: #ffffff; stroke-width: 0.507273; stroke-linejoin: miter"/>
   </g>
   <g id="patch_102">
    <path d="M 1821.261371 377.22375 
L 1838.925564 377.22375 
L 1838.925564 377.218477 
L 1821.261371 377.218477 
z
" clip-path="url(#p9461aea448)" style="fill: #800080; fill-opacity: 0.75; stroke: #ffffff; stroke-width: 0.507273; stroke-linejoin: miter"/>
   </g>
   <g id="patch_103">
    <path d="M 72.50625 377.22375 
L 72.50625 24.8475 
" style="fill: none; stroke: #cccccc; stroke-linejoin: miter; stroke-linecap: square"/>
   </g>
   <g id="patch_104">
    <path d="M 701.36625 377.22375 
L 701.36625 24.8475 
" style="fill: none; stroke: #cccccc; stroke-linejoin: miter; stroke-linecap: square"/>
   </g>
   <g id="patch_105">
    <path d="M 72.50625 377.22375 
L 701.36625 377.22375 
" style="fill: none; stroke: #cccccc; stroke-linejoin: miter; stroke-linecap: square"/>
   </g>
   <g id="patch_106">
    <path d="M 72.50625 24.8475 
L 701.36625 24.8475 
" style="fill: none; stroke: #cccccc; stroke-linejoin: miter; stroke-linecap: square"/>
   </g>
   <g id="text_16">
    <text style="font-size: 16px; font-family: 'Arial', 'DejaVu Sans', 'Liberation Sans', 'Bitstream Vera Sans', sans-serif; text-anchor: middle; fill: #262626" x="386.93625" y="18.8475" transform="rotate(-0 386.93625 18.8475)">Global Absolute Error Distribution (Sampled)</text>
   </g>
  </g>
 </g>
 <defs>
  <clipPath id="p9461aea448">
   <rect x="72.50625" y="24.8475" width="628.86" height="352.37625"/>
  </clipPath>
 </defs>
</svg>
